<svg version="1.2" baseProfile="tiny" viewBox="0 0 97.41 230.167" xmlns:xlink="http://www.w3.org/1999/xlink" xmlns="http://www.w3.org/2000/svg">
<path style="fill:#ffffff;" d="M24.3048,228.3671C24.3048,228.8067,23.9463,229.1681,23.505,229.1681L19.5054,229.1681C19.0651,229.1681,18.7047,228.8067,18.7047,228.3671L18.7047,191.9662C18.7047,191.5289,19.0641,191.1675,19.5054,191.1675L23.505,191.1675C23.9453,191.1675,24.3048,191.5266,24.3048,191.9662L24.3048,228.3671M78.7053,191.9662C78.7053,191.5266,78.3439,191.1652,77.9036,191.1652L73.904,191.1652C73.4647,191.1652,73.1043,191.5266,73.1043,191.9662L73.1043,228.3671C73.1043,228.8044,73.4637,229.1658,73.904,229.1658L77.9036,229.1658C78.343,229.1658,78.7053,228.8067,78.7053,228.3671L78.7053,191.9662M30.5039,181.7652C30.0646,181.7652,29.7042,182.1265,29.7042,182.5662L29.7042,186.5665C29.7042,187.0061,30.0636,187.3675,30.5039,187.3675L66.9041,187.3675C67.3434,187.3675,67.7029,187.0061,67.7029,186.5665L67.7029,182.5662C67.7029,182.1265,67.3444,181.7652,66.9041,181.7652L30.5039,181.7652L30.5039,181.7652M71.0372,199.1658C67.9474,199.1658,67.132,196.3693,62.4681,194.2771C62.5996,194.3783,62.7457,194.4612,62.9054,194.521C60.6962,195.4578,54.9052,197.2992,48.705,197.2992C42.4717,197.2992,36.6466,195.4578,34.4227,194.521L34.4198,194.521L34.4198,194.521C30.2107,196.581,29.3418,199.1658,26.3699,199.1658C25.4367,199.1658,24.3048,197.5661,24.3048,195.833L24.3048,224.498C24.3048,222.7672,25.4376,221.1652,26.3699,221.1652C31.3047,221.1652,30.4367,228.298,48.704,228.298C66.9704,228.298,66.1034,221.1652,71.0372,221.1652C71.9704,199.1658,73.1033,222.7672,73.1033,224.498L73.1033,195.833C73.1043,197.5661,71.9704,199.1658,71.0372,199.1658M61.1745,189.1651L61.2047,189.1651C61.2047,187.8991,62.9473,187.3675,62.9473,187.3675L34.4198,187.3675L34.4198,187.3675C34.4198,187.3675,36.1596,187.8991,36.1596,189.1651C36.1596,187.8991,36.556,193.3265,34.6702,194.4014C34.5922,194.4497,34.5104,194.4888,34.4218,194.521C36.6466,195.4601,42.4708,197.2992,48.704,197.2992C54.9042,197.2992,60.6952,195.4555,62.9045,194.521C62.7457,194.4589,62.5986,194.3783,62.4671,194.2771C60.8082,193.0411,61.1745,189.1651,61.1745,189.1651Z"/>
</svg>