<svg version="1.2" baseProfile="tiny" viewBox="0 0 97.41 230.167" xmlns:xlink="http://www.w3.org/1999/xlink" xmlns="http://www.w3.org/2000/svg">
<path style="fill:#ffffff;" d="M66.9041,176.1652C67.3434,176.1652,67.7029,176.5266,67.7029,176.9662L67.7029,180.9665C67.7029,181.4061,67.3444,181.7675,66.9041,181.7675L30.5039,181.7675C30.0646,181.7675,29.7042,181.4061,29.7042,180.9665L29.7042,176.9662C29.7042,176.5289,30.0636,176.1652,30.5039,176.1652L66.9041,176.1652L66.9041,176.1652M60.0601,174.6829L60.0601,163.8812L37.3928,163.8812L37.3928,174.6829L37.3928,174.6829L37.3519,174.6829C37.3519,175.866,35.918,176.1652,35.918,176.1652L61.492,176.1652C61.492,176.1652,60.0601,175.866,60.0601,174.6829M55.7614,153.9127L55.7614,151.2013L41.6749,151.2013L41.6749,151.2013L41.6749,153.9127L41.6496,153.9127L41.6496,153.9127C41.6496,154.6469,40.7583,154.8333,40.7583,154.8333L56.6498,154.8333L56.6498,154.8333C56.6498,154.8333,55.7614,154.6469,55.7614,153.9127M58.0719,155.2338C58.0719,155.0129,57.8908,154.8333,57.6716,154.8333L39.7384,154.8333L39.7384,154.8333C39.5173,154.8333,39.3381,155.0129,39.3381,155.2338L39.3381,157.6759C39.3381,158.0741,39.5183,158.0741,39.7384,158.0741L57.6716,158.0741C57.8917,158.0741,58.0719,157.8946,58.0719,157.6759L58.0719,155.2338M54.8701,110.5423L42.5389,110.5423L42.5389,110.5423C42.5389,110.5423,43.2296,110.731,43.2296,111.463L43.25,121.5995L43.25,121.5995L54.1804,121.5995L54.1804,111.463C54.1804,110.731,54.8701,110.5423,54.8701,110.5423M55.9728,107.702C55.9728,107.4811,55.8335,107.3016,55.662,107.3016L41.747,107.3016L41.747,107.3016C41.5756,107.3016,41.4372,107.4811,41.4372,107.702L41.4372,110.1418C41.4372,110.3628,41.5756,110.5423,41.747,110.5423L55.662,110.5423C55.8335,110.5423,55.9728,110.3605,55.9728,110.1418L55.9728,107.702M51.1539,121.5995L46.2551,121.5995L46.2551,151.2013L51.1539,151.2013L51.1539,121.5995M56.3117,125.5653C56.3117,125.128,55.9523,124.7666,55.512,124.7666L41.898,124.7666L41.898,124.7666C41.4567,124.7666,41.0973,125.1257,41.0973,125.5653L41.0973,125.5653C41.0973,139.0071,41.4557,139.3661,41.898,139.3661L55.511,139.3661C55.9504,139.3661,56.3108,139.0071,56.3108,138.5652L56.3108,125.5653M67.4379,44.3002L29.9711,44.3002L29.9711,44.3002C29.9711,44.3002,32.0732,44.8711,32.0732,47.1014L32.1317,47.1014L32.1317,107.2993L65.3397,107.2993L65.3397,107.2993L65.3397,47.1014C65.3397,44.8711,67.4379,44.3002,67.4379,44.3002M28.3375,38.0328C27.8456,38.0328,27.4433,38.4356,27.4433,38.9281L27.4433,43.4049C27.4433,43.8975,27.8446,44.3002,28.3375,44.3002L69.0725,44.3002C69.5644,44.3002,69.9667,43.8975,69.9667,43.4049L69.9667,38.9281C69.9667,38.4356,69.5654,38.0328,69.0725,38.0328L28.3375,38.0328L28.3375,38.0328M84.1642,9.6003C79.5148,7.2756,72.9689,6.5989,69.9667,6.5989C66.9655,6.5989,48.705,6.5989,48.705,6.5989C48.705,6.5989,30.4445,6.5989,27.4433,6.5989C24.4411,6.5989,17.8923,7.2756,13.2439,9.6003C7.8454,12.3001,7.8454,20.8002,7.8454,25.0261C7.8454,29.2519,7.8454,27.9008,7.8454,31.7999C7.8454,35.6989,17.6448,38.0351,26.5452,38.0351C35.4446,38.0351,48.705,38.0351,48.705,38.0351C48.705,38.0351,61.9654,38.0351,70.8648,38.0351C79.7642,38.0351,89.5636,35.6989,89.5636,31.7999C89.5636,27.9008,89.5636,29.2519,89.5636,25.0261C89.5636,20.8002,89.5636,12.3001,84.1642,9.6003M96.4077,29.3256C96.4077,29.1069,96.2693,28.9251,96.0979,28.9251L1.3111,28.9251L1.3111,28.9251C1.1407,28.9251,1.0004,29.1069,1.0004,29.3256L1.0004,30.5685C1.0004,30.7871,1.1407,30.969,1.3111,30.969L96.0989,30.969C96.2703,30.969,96.4086,30.7871,96.4086,30.5685L96.4086,29.3256M96.4077,27.284C96.4077,27.063,96.2693,26.8835,96.0979,26.8835L1.3111,26.8835L1.3111,26.8835C1.1407,26.8835,1.0004,27.063,1.0004,27.284L1.0004,28.5269C1.0004,27.063,1.1407,28.9251,1.3111,28.9251L96.0989,28.9251C96.2703,28.9251,96.4086,28.7456,96.4086,28.5269L96.4086,27.284M52.3394,5.1788C52.3394,5.0683,52.2702,4.9785,52.1845,4.9785L45.2275,4.9785C45.1408,4.9785,45.0706,5.0683,45.0706,5.1788L45.0706,6.4009C45.0706,6.5091,45.1408,6.5989,45.2275,6.5989L52.1845,6.5989C52.2702,6.5989,52.3394,6.5091,52.3394,6.4009L52.3394,5.1788M49.8554,3.5998L47.5536,3.5998L47.5536,4.9785L49.8554,4.9785L49.8554,3.5998M55.1535,2.2004C55.1535,1.7608,54.7951,1.3994,54.3548,1.3994C54.3548,1.3994,54.3548,0.9989,48.705,0.9989C43.0552,0.9989,43.0552,1.3994,43.0552,1.3994C42.6159,1.3994,42.2555,1.7608,42.2555,2.2004L42.2555,2.8011C42.2555,3.2408,42.6149,3.5998,43.0552,3.5998L54.3558,3.5998C54.7951,3.5998,55.1545,3.2408,55.1545,2.8011L55.1545,2.2004M67.171,174.1467C67.171,174.0339,67.1019,173.9441,67.0161,173.9441L61.8583,173.9441C61.7735,173.9441,61.7044,174.0339,61.7044,174.1467L61.7044,175.965C61.7044,176.0755,61.7735,176.1652,61.8583,176.1652L67.0161,176.1652C67.1019,176.1652,67.171,176.0755,67.171,175.965L67.171,174.1467M36.1294,174.1467C36.1294,174.0339,36.0592,173.9441,35.9735,173.9441L30.8166,173.9441C30.7309,173.9441,30.6617,174.0339,30.6617,174.1467L30.6617,175.965C30.6617,176.0755,30.7309,176.1652,30.8166,176.1652L35.9735,176.1652C36.0592,176.1652,36.1294,176.0755,36.1294,175.965L36.1294,174.1467M51.6292,174.1467C51.6292,174.0339,51.5591,173.9441,51.4753,173.9441L46.3175,173.9441C46.2308,173.9441,46.1626,174.0339,46.1626,174.1467L46.1626,175.965C46.1626,176.0755,46.2308,176.1652,46.3175,176.1652L51.4753,176.1652C51.5591,176.1652,51.6292,176.0755,51.6292,175.965L51.6292,174.1467M51.4393,24.8626C51.4393,24.7522,51.3692,24.6624,51.2834,24.6624L46.1256,24.6624C46.0408,24.6624,45.9707,24.7522,45.9707,24.8626L45.9707,26.6833C45.9707,26.7937,46.0408,26.8835,46.1256,26.8835L51.2834,26.8835C51.3692,26.8835,51.4393,26.7937,51.4393,26.6833L51.4393,24.8626M35.4387,24.8626C35.4387,24.7522,35.3686,24.6624,35.2829,24.6624L30.126,24.6624C30.0412,24.6624,29.9711,24.7522,29.9711,24.8626L29.9711,26.6833C29.9711,26.7937,30.0412,26.8835,30.126,26.8835L35.2829,26.8835C35.3686,26.8835,35.4387,26.7937,35.4387,26.6833L35.4387,24.8626M21.439,24.8626C21.439,24.7522,21.3688,24.6624,21.2831,24.6624L16.1262,24.6624C16.0415,24.6624,15.9713,24.7522,15.9713,24.8626L15.9713,26.6833C15.9713,26.7937,16.0415,26.8835,16.1262,26.8835L21.2831,26.8835C21.3688,26.8835,21.439,26.7937,21.439,26.6833L21.439,24.8626M11.4389,24.8626C11.4389,24.7522,11.3687,24.6624,11.283,24.6624L6.1261,24.6624L6.1261,24.6624C6.0414,24.6624,5.9712,24.7522,5.9712,24.8626L5.9712,26.6833C5.9712,26.7937,6.0414,26.8835,6.1261,26.8835L11.283,26.8835C11.3687,26.8835,11.4389,26.7937,11.4389,26.6833L11.4389,24.8626M7.4392,24.8626C7.4392,24.7522,7.3691,24.6624,7.2833,24.6624L2.1265,24.6624L2.1265,24.6624C2.0407,24.6624,1.9706,24.7522,1.9706,24.8626L1.9706,24.8626C1.9706,26.7937,2.0407,26.8835,2.1265,26.8835L7.2833,26.8835C7.3691,26.8835,7.4392,26.7937,7.4392,26.6833L7.4392,24.8626M61.9713,26.6856C61.9713,26.796,62.0414,26.8858,62.1271,26.8858L67.283,26.8858C67.3688,26.8858,67.4389,26.796,67.4389,26.6856L67.4389,24.8649C67.4389,24.7545,67.3688,24.6647,67.283,24.6647L62.1271,24.6647C62.0414,24.6647,61.9713,24.7545,61.9713,24.8649L61.9713,26.6856M75.971,26.6856C75.971,26.796,76.0412,26.8858,76.1269,26.8858L81.2828,26.8858C81.3685,26.8858,81.4387,26.796,81.4387,26.6856L81.4387,24.8649C81.4387,24.7545,81.3685,24.6647,81.2828,24.6647L76.1269,24.6647C76.0412,24.6647,75.971,24.7545,75.971,24.8649L75.971,26.6856M85.9712,26.6856C85.9712,26.796,86.0413,26.8858,86.127,26.8858L91.2829,26.8858C91.3686,26.8858,91.4388,26.796,91.4388,26.6856L91.4388,24.8649C91.4388,24.7545,91.3686,24.6647,91.2829,24.6647L86.127,24.6647C86.0413,24.6647,85.9712,24.7545,85.9712,24.8649L85.9712,26.6856M89.9708,26.6856C89.9708,26.796,90.0409,26.8858,90.1267,26.8858L95.2826,26.8858C95.3693,26.8858,95.4394,26.796,95.4394,26.6856L95.4394,24.8649C95.4394,24.7545,95.3693,24.6647,95.2826,24.6647L90.1267,24.6647C90.0409,24.6647,89.9708,24.7545,89.9708,24.8649L89.9708,26.6856M51.4393,31.1669C51.4393,31.0587,51.3692,30.969,51.2834,30.969L46.1256,30.969C46.0408,30.969,45.9707,31.0587,45.9707,31.1669L45.9707,32.9898C45.9707,33.098,46.0408,33.1901,46.1256,33.1901L51.2834,33.1901C51.3692,33.1901,51.4393,33.098,51.4393,32.9898L51.4393,31.1669M35.4387,31.1669C35.4387,31.0587,35.3686,30.969,35.2829,30.969L30.126,30.969C30.0412,30.969,29.9711,31.0587,29.9711,31.1669L29.9711,32.9898C29.9711,33.098,30.0412,33.1901,30.126,33.1901L35.2829,33.1901C35.3686,33.1901,35.4387,33.098,35.4387,32.9898L35.4387,31.1669M21.439,31.1669C21.439,31.0587,21.3688,30.969,21.2831,30.969L16.1262,30.969C16.0415,30.969,15.9713,31.0587,15.9713,31.1669L15.9713,32.9898C15.9713,33.098,16.0415,33.1901,16.1262,33.1901L21.2831,33.1901C21.3688,33.1901,21.439,33.098,21.439,32.9898L21.439,31.1669M11.4389,31.1669C11.4389,31.0587,11.3687,30.969,11.283,30.969L6.1261,30.969L6.1261,30.969C6.0414,30.969,5.9712,31.0587,5.9712,31.1669L5.9712,32.9898C5.9712,33.098,6.0414,33.1901,6.1261,33.1901L11.283,33.1901C11.3687,33.1901,11.4389,33.098,11.4389,32.9898L11.4389,31.1669M7.4392,31.1669C7.4392,31.0587,7.3691,30.969,7.2833,30.969L2.1265,30.969L2.1265,30.969C2.0407,30.969,1.9706,31.0587,1.9706,31.1669L1.9706,32.9898C1.9706,33.098,2.0407,33.1901,2.1265,33.1901L7.2833,33.1901C7.3691,33.1901,7.4392,33.098,7.4392,32.9898L7.4392,31.1669M61.9713,32.9898C61.9713,33.098,62.0414,33.1901,62.1271,33.1901L67.283,33.1901C67.3688,33.1901,67.4389,33.098,67.4389,32.9898L67.4389,31.1669C67.4389,31.0587,67.3688,30.969,67.283,30.969L62.1271,30.969C62.0414,30.969,61.9713,31.0587,61.9713,31.1669L61.9713,32.9898M75.971,32.9898C75.971,33.098,76.0412,33.1901,76.1269,33.1901L81.2828,33.1901C81.3685,33.1901,81.4387,33.098,81.4387,32.9898L81.4387,31.1669C81.4387,31.0587,81.3685,30.969,81.2828,30.969L76.1269,30.969C76.0412,30.969,75.971,31.0587,75.971,31.1669L75.971,32.9898M85.9712,32.9898C85.9712,33.098,86.0413,33.1901,86.127,33.1901L91.2829,33.1901C91.3686,33.1901,91.4388,33.098,91.4388,32.9898L91.4388,31.1669C91.4388,31.0587,91.3686,30.969,91.2829,30.969L86.127,30.969C86.0413,30.969,85.9712,31.0587,85.9712,31.1669L85.9712,32.9898M89.9708,32.9898C89.9708,33.098,90.0409,33.1901,90.1267,33.1901L95.2826,33.1901C95.3693,33.1901,95.4394,33.098,95.4394,32.9898L95.4394,31.1669C95.4394,31.0587,95.3693,30.969,95.2826,30.969L90.1267,30.969C90.0409,30.969,89.9708,31.0587,89.9708,31.1669L89.9708,32.9898Z"/>
</svg>