<svg version="1.2" baseProfile="tiny" id="EdgeSVG_GSNl9" x="0px" y="0px" width="97.41px" height="230.167px" viewBox="0 0 97.41 230.167" xmlns:xlink="http://www.w3.org/1999/xlink" xmlns="http://www.w3.org/2000/svg">
  <linearGradient id="SVGID_1_" gradientUnits="userSpaceOnUse" x1="0" y1="115.0835" x2="97.4102" y2="115.0835">
    <stop offset="0" style="stop-color:#000000;stop-opacity:0.45"/>
    <stop offset="1" style="stop-color:#000000;stop-opacity:0.45"/>
  </linearGradient>
  <path fill="url(#SVGID_1_)" d="M97.41,27.284c0-0.645-0.413-1.185-0.971-1.346v-1.075c0-0.662-0.519-1.2-1.156-1.2h-4H90.56&#xD;&#xA;&#x9;&#x9;c-0.049-4.637-0.559-12.265-5.946-14.958C79.698,6.249,72.884,5.6,69.968,5.6h-0.001H53.339V5.179c0-0.214-0.069-0.405-0.164-0.579&#xD;&#xA;&#x9;&#x9;h1.181c0.992,0,1.799-0.808,1.799-1.8V2.2c0-0.867-0.615-1.593-1.433-1.763C53.955,0.125,52.287,0,48.705,0&#xD;&#xA;&#x9;&#x9;c-3.581,0-5.249,0.125-6.017,0.438c-0.817,0.169-1.434,0.896-1.434,1.763v0.6c0,0.993,0.808,1.8,1.8,1.8h1.18&#xD;&#xA;&#x9;&#x9;C44.14,4.774,44.07,4.965,44.07,5.179V5.6H27.443c-2.918,0-9.733,0.649-14.646,3.105C7.41,11.399,6.9,19.026,6.852,23.664H6.126h-4&#xD;&#xA;&#x9;&#x9;c-0.637,0-1.155,0.538-1.155,1.2v1.075c-0.011,0.003-0.021,0.007-0.03,0.01C0.398,26.12,0,26.651,0,27.284v1.242&#xD;&#xA;&#x9;&#x9;c0,0.14,0.025,0.272,0.062,0.4C0.025,29.054,0,29.186,0,29.326v1.242c0,0.646,0.413,1.185,0.971,1.346v1.075&#xD;&#xA;&#x9;&#x9;c0,0.662,0.519,1.2,1.155,1.2h4h1.157h0.503c1.846,2.188,6.03,3.377,9.323,3.999l0.201,0.038l0.066-0.015&#xD;&#xA;&#x9;&#x9;c2.85,0.52,5.857,0.778,8.441,0.818c0.212,0.003,0.419,0.004,0.625,0.005v4.372v0.621l0.074-0.125c0.219,0.804,0.947,1.4,1.82,1.4&#xD;&#xA;&#x9;&#x9;h1.471c0.238,0.091,0.776,0.351,1.067,0.931c0.008,0.014,0.012,0.033,0.018,0.047c0.05,0.104,0.094,0.216,0.124,0.342&#xD;&#xA;&#x9;&#x9;c0.034,0.146,0.055,0.306,0.055,0.482l0.059,1v3.509v51.145c-0.088,0.074-0.169,0.154-0.254,0.231&#xD;&#xA;&#x9;&#x9;c-0.103,0.092-0.207,0.182-0.305,0.276c-0.137,0.134-0.264,0.277-0.392,0.419c-0.281,0.309-0.542,0.63-0.778,0.969&#xD;&#xA;&#x9;&#x9;c-0.027,0.039-0.059,0.076-0.086,0.116c-0.132,0.194-0.249,0.397-0.365,0.601c-0.051,0.089-0.104,0.175-0.152,0.266&#xD;&#xA;&#x9;&#x9;c-0.104,0.193-0.196,0.392-0.285,0.592c-0.052,0.114-0.102,0.229-0.148,0.345c-0.075,0.188-0.146,0.378-0.209,0.57&#xD;&#xA;&#x9;&#x9;c-0.049,0.146-0.091,0.296-0.132,0.445c-0.048,0.173-0.097,0.345-0.135,0.521c-0.043,0.197-0.074,0.399-0.104,0.601&#xD;&#xA;&#x9;&#x9;c-0.021,0.139-0.049,0.275-0.064,0.416c-0.038,0.349-0.061,0.702-0.061,1.062v0.001v44.985c0,0.308,0.018,0.612,0.046,0.915&#xD;&#xA;&#x9;&#x9;c0.013,0.131,0.034,0.258,0.052,0.387c0.022,0.163,0.044,0.326,0.074,0.486c0.031,0.167,0.07,0.33,0.11,0.493&#xD;&#xA;&#x9;&#x9;c0.027,0.112,0.055,0.225,0.086,0.336c0.053,0.188,0.111,0.373,0.176,0.557c0.025,0.074,0.053,0.147,0.08,0.221&#xD;&#xA;&#x9;&#x9;c0.078,0.208,0.16,0.412,0.252,0.613c0.013,0.028,0.027,0.057,0.041,0.085c0.453,0.969,1.057,1.851,1.787,2.613&#xD;&#xA;&#x9;&#x9;c0.004,0.004,0.007,0.007,0.01,0.01c0.155,0.162,0.317,0.314,0.482,0.465c0.053,0.048,0.105,0.098,0.159,0.145&#xD;&#xA;&#x9;&#x9;c0.146,0.127,0.297,0.248,0.451,0.366c0.082,0.063,0.165,0.126,0.249,0.188c0.143,0.102,0.286,0.201,0.434,0.296&#xD;&#xA;&#x9;&#x9;c0.105,0.067,0.214,0.132,0.322,0.195c0.139,0.082,0.277,0.163,0.421,0.237c0.126,0.066,0.256,0.126,0.386,0.187&#xD;&#xA;&#x9;&#x9;c0.136,0.063,0.271,0.13,0.41,0.187c0.146,0.061,0.298,0.111,0.449,0.165c0.13,0.047,0.259,0.099,0.392,0.139&#xD;&#xA;&#x9;&#x9;c0.251,0.077,0.507,0.143,0.767,0.199l0,0c0.003,0.001,0.005,0.001,0.008,0.002c0.016,0.003,0.031,0.009,0.047,0.012v-0.001&#xD;&#xA;&#x9;&#x9;c0.065,0.014,0.132,0.024,0.197,0.037c0.168,0.039,0.337,0.077,0.512,0.102v0.033v0.043h0.312v1.282l0.021-0.011v6.879&#xD;&#xA;&#x9;&#x9;c-0.131-0.053-0.271-0.088-0.419-0.088h-5.157c-0.637,0-1.155,0.539-1.155,1.201v1.239c-0.566,0.304-0.957,0.895-0.957,1.581v4&#xD;&#xA;&#x9;&#x9;c0,0.289,0.074,0.558,0.196,0.8c-0.122,0.242-0.196,0.511-0.196,0.8v4c0,0.993,0.808,1.801,1.8,1.801h3.742&#xD;&#xA;&#x9;&#x9;c0.009,0.003,0.016,0.006,0.024,0.009c0.318,0.133,0.744,0.394,0.863,0.718c0.019,0.053,0.029,0.107,0.03,0.163&#xD;&#xA;&#x9;&#x9;c0,0,0.002,0.028,0.003,0.04c0.006,0.061,0.008,0.136,0.012,0.203c0.007,0.126,0.014,0.282,0.015,0.486c0,0.008,0,0.016,0,0.022&#xD;&#xA;&#x9;&#x9;c0.001,0.127-0.002,0.269-0.006,0.415c-0.044,1.198-0.294,2.674-1.018,3.107l-0.165,0.081l-2.248,0.873l0.403,0.17&#xD;&#xA;&#x9;&#x9;c-0.975,0.632-1.741,1.263-2.401,1.808c-1.285,1.063-2.061,1.703-3.365,1.705c-0.314-0.071-1.089-1.079-1.089-2.334v-3.867&#xD;&#xA;&#x9;&#x9;c0-0.992-0.808-1.8-1.8-1.8h-4c-0.992,0-1.8,0.808-1.8,1.8v36.4c0,0.992,0.808,1.8,1.8,1.8h4c0.992,0,1.8-0.808,1.8-1.8v-3.869&#xD;&#xA;&#x9;&#x9;c0-1.255,0.774-2.263,1.065-2.332c1.328,0,2.103,0.641,3.388,1.703c2.615,2.162,6.567,5.43,18.946,5.43s16.331-3.268,18.946-5.43&#xD;&#xA;&#x9;&#x9;c1.284-1.063,2.06-1.703,3.363-1.705c0.314,0.071,1.09,1.079,1.09,2.334h0.001v3.869c0,0.992,0.808,1.8,1.8,1.8h4&#xD;&#xA;&#x9;&#x9;c0.993,0,1.801-0.808,1.801-1.8v-36.4c0-0.992-0.808-1.8-1.801-1.8h-4c-0.992,0-1.8,0.808-1.8,1.8v3.867h-0.001&#xD;&#xA;&#x9;&#x9;c0,1.255-0.775,2.263-1.066,2.332c-1.327,0-2.103-0.641-3.388-1.702c-0.673-0.557-1.449-1.194-2.438-1.832l0.352-0.148&#xD;&#xA;&#x9;&#x9;l-1.871-0.728c-0.211-0.107-0.436-0.213-0.664-0.318c-0.574-0.472-0.808-1.669-0.87-2.741l-0.008-0.189&#xD;&#xA;&#x9;&#x9;c-0.005-0.119-0.008-0.233-0.009-0.341h0.064v-1c0-0.325,0.546-0.652,0.916-0.799h3.783c0.992,0,1.799-0.808,1.799-1.801v-4&#xD;&#xA;&#x9;&#x9;c0-0.289-0.074-0.558-0.196-0.8c0.122-0.242,0.196-0.511,0.196-0.8v-4c0-0.499-0.204-0.95-0.532-1.276v-1.544&#xD;&#xA;&#x9;&#x9;c0-0.662-0.519-1.201-1.155-1.201h-5.158c-0.311,0-0.59,0.132-0.798,0.34v-8.406l0.29-0.002v-0.038v-0.032&#xD;&#xA;&#x9;&#x9;c0.18-0.026,0.354-0.063,0.527-0.104c0.059-0.012,0.117-0.021,0.176-0.033v0.001c0.013-0.003,0.025-0.007,0.038-0.01&#xD;&#xA;&#x9;&#x9;c0.005-0.001,0.01-0.002,0.015-0.003v-0.001c0.263-0.057,0.522-0.123,0.777-0.201c0.121-0.037,0.238-0.085,0.357-0.127&#xD;&#xA;&#x9;&#x9;c0.162-0.057,0.325-0.112,0.483-0.177c0.134-0.056,0.263-0.119,0.394-0.18c0.136-0.063,0.271-0.125,0.402-0.194&#xD;&#xA;&#x9;&#x9;c0.14-0.072,0.274-0.151,0.41-0.23c0.112-0.066,0.224-0.133,0.332-0.202c0.146-0.093,0.286-0.19,0.426-0.29&#xD;&#xA;&#x9;&#x9;c0.088-0.063,0.173-0.128,0.259-0.193c0.15-0.117,0.299-0.235,0.443-0.36c0.057-0.05,0.111-0.102,0.167-0.152&#xD;&#xA;&#x9;&#x9;c0.163-0.148,0.323-0.298,0.476-0.457c0.006-0.007,0.012-0.014,0.018-0.02c0.727-0.76,1.327-1.636,1.778-2.599&#xD;&#xA;&#x9;&#x9;c0.016-0.032,0.032-0.063,0.047-0.097c0.09-0.198,0.172-0.401,0.249-0.606c0.028-0.075,0.057-0.15,0.083-0.228&#xD;&#xA;&#x9;&#x9;c0.063-0.182,0.121-0.365,0.174-0.552c0.032-0.112,0.06-0.227,0.088-0.341c0.039-0.162,0.078-0.324,0.108-0.49&#xD;&#xA;&#x9;&#x9;c0.031-0.161,0.053-0.324,0.075-0.487c0.018-0.129,0.039-0.257,0.052-0.387c0.028-0.303,0.046-0.607,0.046-0.915v-44.985v-0.001&#xD;&#xA;&#x9;&#x9;c0-0.357-0.022-0.71-0.061-1.058c-0.014-0.132-0.04-0.261-0.06-0.393c-0.032-0.209-0.063-0.419-0.108-0.624&#xD;&#xA;&#x9;&#x9;c-0.036-0.165-0.082-0.326-0.126-0.487c-0.045-0.164-0.09-0.326-0.143-0.486c-0.059-0.178-0.124-0.352-0.192-0.525&#xD;&#xA;&#x9;&#x9;c-0.055-0.136-0.111-0.27-0.171-0.402c-0.081-0.181-0.166-0.359-0.258-0.534c-0.063-0.119-0.131-0.234-0.199-0.351&#xD;&#xA;&#x9;&#x9;c-0.102-0.175-0.202-0.35-0.314-0.518c-0.082-0.122-0.173-0.237-0.26-0.355c-0.144-0.195-0.291-0.389-0.45-0.573&#xD;&#xA;&#x9;&#x9;c-0.176-0.205-0.357-0.406-0.55-0.597c-0.081-0.079-0.168-0.152-0.252-0.229c-0.089-0.082-0.176-0.164-0.267-0.242v-51.35v-4.359&#xD;&#xA;&#x9;&#x9;c0-0.268,0.055-0.489,0.129-0.688c0.263-0.705,0.876-1.017,1.131-1.114h1.473c0.872,0,1.601-0.595,1.82-1.398l0.075,0.128v-4.997&#xD;&#xA;&#x9;&#x9;c2.672-0.006,5.876-0.252,8.915-0.795l0.068,0.012l0.175-0.032c3.36-0.617,7.628-1.809,9.499-4.029h0.502h1.156h4&#xD;&#xA;&#x9;&#x9;c0.638,0,1.156-0.538,1.156-1.2v-0.681v-0.395c0.016-0.004,0.03-0.01,0.046-0.015c0.533-0.177,0.925-0.704,0.925-1.331v-1.242&#xD;&#xA;&#x9;&#x9;c0-0.14-0.025-0.272-0.062-0.4c0.036-0.128,0.062-0.26,0.062-0.4V27.284z M61.905,155.543c-0.013,0.061-0.035,0.116-0.053,0.174&#xD;&#xA;&#x9;&#x9;c-0.018,0.061-0.031,0.123-0.056,0.181c-0.019,0.046-0.046,0.087-0.068,0.132c-0.033,0.064-0.063,0.13-0.104,0.19&#xD;&#xA;&#x9;&#x9;c-0.023,0.036-0.054,0.067-0.08,0.103c-0.047,0.062-0.093,0.123-0.147,0.178c-0.029,0.031-0.064,0.057-0.096,0.085&#xD;&#xA;&#x9;&#x9;c-0.058,0.052-0.115,0.103-0.178,0.147c-0.039,0.026-0.082,0.048-0.122,0.072c-0.062,0.036-0.123,0.073-0.189,0.103&#xD;&#xA;&#x9;&#x9;c-0.052,0.023-0.106,0.039-0.161,0.058c-0.06,0.021-0.118,0.042-0.18,0.057c-0.066,0.015-0.136,0.022-0.204,0.03&#xD;&#xA;&#x9;&#x9;c-0.076,0.01-0.15,0.023-0.229,0.023h-0.967v-1.842c0-0.772-0.628-1.4-1.4-1.4H56.81c-0.017-0.007-0.033-0.012-0.049-0.02v-3.613&#xD;&#xA;&#x9;&#x9;h-4.604v-5.284v-4.55h3.355c0.992,0,1.8-0.808,1.8-1.801v-13c0-0.124-0.013-0.245-0.037-0.362&#xD;&#xA;&#x9;&#x9;c-0.168-0.819-0.895-1.438-1.763-1.438h-3.355V122.6h3.023v-1l-0.033-7.09l0.033,0.039v-2.699l-0.041-0.308h0.523&#xD;&#xA;&#x9;&#x9;c0.571,0,1.053-0.395,1.231-0.939l0.08,0.012V108.3h3.239c0.042,0.004,0.084,0.006,0.124,0.013c0.056,0.009,0.11,0.02,0.164,0.033&#xD;&#xA;&#x9;&#x9;c0.07,0.018,0.139,0.038,0.205,0.063c0.042,0.016,0.084,0.032,0.124,0.05c0.074,0.035,0.146,0.074,0.215,0.117&#xD;&#xA;&#x9;&#x9;c0.029,0.019,0.06,0.036,0.088,0.057c0.072,0.051,0.139,0.107,0.202,0.167c0.023,0.021,0.047,0.041,0.068,0.063&#xD;&#xA;&#x9;&#x9;c0.061,0.063,0.115,0.132,0.167,0.202c0.02,0.026,0.041,0.051,0.059,0.078c0.046,0.069,0.083,0.144,0.119,0.219&#xD;&#xA;&#x9;&#x9;c0.017,0.035,0.036,0.067,0.051,0.104c0.029,0.069,0.048,0.144,0.068,0.218c0.012,0.045,0.029,0.088,0.038,0.135&#xD;&#xA;&#x9;&#x9;c0.015,0.076,0.019,0.155,0.023,0.234c0.004,0.045,0.013,0.088,0.013,0.133v4.117v40.868c0,0.083-0.014,0.162-0.023,0.241&#xD;&#xA;&#x9;&#x9;C61.912,155.457,61.913,155.501,61.905,155.543z M40.517,110.603c0.179,0.545,0.66,0.939,1.23,0.939h0.485l0.018,0.922v2.194v7.941&#xD;&#xA;&#x9;&#x9;h3.005v0.49l-0.001,0.676h-3.356c-0.868,0-1.595,0.618-1.764,1.438c-0.023,0.117-0.036,0.238-0.036,0.362v13&#xD;&#xA;&#x9;&#x9;c0,0.248,0.051,0.485,0.142,0.7c0.273,0.646,0.914,1.101,1.658,1.101h0.001h3.356v1.281l-0.001,3.281l0.001-0.001v5.272h-4.58&#xD;&#xA;&#x9;&#x9;v2.711H40.65v0.902c-0.016,0.009-0.03,0.013-0.047,0.02h-0.865c-0.772,0-1.4,0.628-1.4,1.4v1.842h-0.967&#xD;&#xA;&#x9;&#x9;c-0.084,0-0.164-0.015-0.245-0.024c-0.063-0.009-0.124-0.015-0.184-0.028c-0.066-0.016-0.13-0.038-0.193-0.061&#xD;&#xA;&#x9;&#x9;c-0.051-0.018-0.102-0.032-0.15-0.054c-0.067-0.03-0.131-0.068-0.193-0.105c-0.04-0.023-0.081-0.045-0.119-0.07&#xD;&#xA;&#x9;&#x9;c-0.063-0.044-0.12-0.096-0.177-0.146c-0.032-0.029-0.067-0.055-0.098-0.086c-0.053-0.054-0.098-0.114-0.144-0.174&#xD;&#xA;&#x9;&#x9;c-0.028-0.036-0.06-0.069-0.084-0.107c-0.039-0.059-0.068-0.121-0.101-0.184c-0.023-0.047-0.052-0.09-0.071-0.139&#xD;&#xA;&#x9;&#x9;c-0.023-0.057-0.037-0.117-0.055-0.176c-0.019-0.059-0.041-0.116-0.053-0.178c-0.009-0.044-0.009-0.09-0.014-0.134&#xD;&#xA;&#x9;&#x9;c-0.011-0.079-0.023-0.157-0.023-0.238V114.4v-4.214c0-0.045,0.01-0.088,0.013-0.133c0.005-0.079,0.009-0.158,0.023-0.234&#xD;&#xA;&#x9;&#x9;c0.009-0.047,0.026-0.091,0.039-0.137c0.021-0.072,0.039-0.146,0.067-0.215c0.015-0.037,0.035-0.07,0.053-0.106&#xD;&#xA;&#x9;&#x9;c0.035-0.074,0.072-0.147,0.117-0.216c0.019-0.028,0.04-0.054,0.06-0.08c0.052-0.07,0.105-0.139,0.166-0.201&#xD;&#xA;&#x9;&#x9;c0.022-0.022,0.047-0.043,0.07-0.065c0.063-0.059,0.129-0.114,0.199-0.164c0.03-0.021,0.062-0.04,0.093-0.059&#xD;&#xA;&#x9;&#x9;c0.067-0.043,0.138-0.081,0.21-0.115c0.042-0.019,0.085-0.035,0.128-0.052c0.065-0.024,0.133-0.045,0.202-0.063&#xD;&#xA;&#x9;&#x9;c0.055-0.014,0.11-0.024,0.166-0.033c0.041-0.007,0.082-0.009,0.123-0.013h3.24v1.842v0.473L40.517,110.603z"/>
</svg>