<svg version="1.2" baseProfile="tiny" viewBox="0 0 97.41 230.167" xmlns:xlink="http://www.w3.org/1999/xlink" xmlns="http://www.w3.org/2000/svg">
<path style="fill:#ffffff;" d="M60.0387,163.8812L37.3713,163.8812L37.3713,163.8812C32.5681,163.8812,28.66,159.973,28.66,155.1717L28.66,110.1856C28.66,105.382,32.5681,101.476,37.3713,101.476L60.0387,101.476C64.8419,101.476,68.75,105.382,68.75,110.1856L68.75,155.1717C68.75,159.973,64.8419,163.8812,60.0387,163.8812M37.3713,107.2831C35.769,107.2831,34.4666,108.5859,34.4666,110.1856L34.4666,155.1717C34.4666,156.7737,35.7699,158.0741,37.3713,158.0741L60.0387,158.0741C61.6401,158.0741,62.9424,156.7713,62.9424,155.1717L62.9424,110.1856C62.9424,108.5836,61.6391,107.2831,60.0387,107.2831L37.3713,107.2831L37.3713,107.2831Z"/>
</svg>