<svg version="1.2" baseProfile="tiny" viewBox="0 0 213.0 213.0" xmlns:xlink="http://www.w3.org/1999/xlink" xmlns="http://www.w3.org/2000/svg">
<path style="fill:#ffffff;" d="M211.4174,170.4895L211.4153,106.5L211.411,10.0003C211.411,5.3122,208.0158,1.4995,203.8453,1.4995L194.8162,1.4995L14.6885,1.4995L14.6885,1.4995L9.061,1.4995L9.061,1.4995C4.8905,1.4995,1.4995,5.3122,1.4995,10.0003L1.6955,106.5L1.4974,202.9996C1.4974,207.6878,4.8905,211.5005,9.061,211.5005L14.6885,211.5005L194.8162,211.5005L203.8453,211.5005C208.0158,211.5005,211.4089,207.6878,211.4089,202.9996L211.411,176.6047C211.4664,175.7357,211.5005,174.8645,211.5005,173.989C211.5005,173.3777,211.4813,172.7686,211.4643,172.1615L211.4174,170.4895Z"/>
</svg>