<svg version="1.2" baseProfile="tiny" viewBox="0 0 213.0 213.0" xmlns:xlink="http://www.w3.org/1999/xlink" xmlns="http://www.w3.org/2000/svg">
<path style="fill:#ffffff;" d="M20.5481,168.8771L20.5481,168.0676C21.3106,167.9931,21.841,167.8696,22.1413,167.6949C22.4417,167.5202,22.6653,167.1091,22.8144,166.4616L23.6451,166.4616L23.6451,174.8176L22.5226,174.8176L22.5226,168.8771L20.5481,168.8771L20.5481,168.8771M7.5764,126.2643C7.8363,125.7296,8.3432,125.244,9.0951,124.8052L10.2197,124.1556C10.7224,123.8616,11.076,123.6124,11.2783,123.4037C11.5979,123.0799,11.7576,122.7072,11.7576,122.2897C11.7576,121.7998,11.6106,121.41,11.3188,121.1246C11.027,120.837,10.6351,120.6922,10.1494,120.6922C9.4274,120.6922,8.929,120.967,8.6521,121.5144C8.503,121.8083,8.422,122.2151,8.405,122.737L7.3336,122.737L7.3336,122.737C7.3464,122.0064,7.4784,121.41,7.7383,120.9499C8.1941,120.1363,8.9993,119.7316,10.1537,119.7316C11.1122,119.7316,11.813,119.9914,12.2581,120.509C12.6991,121.0309,12.9227,121.6081,12.9227,122.245C12.9227,122.9159,12.6863,123.491,12.2134,123.966C11.9408,124.245,11.4509,124.5794,10.7459,124.9756L9.9428,125.4208C9.5594,125.6317,9.2591,125.8319,9.044,126.0236C8.6521,126.3644,8.4071,126.7414,8.307,127.1546L12.8801,127.1546L12.8801,128.1514L7.1291,128.1514L7.1291,128.1514C7.1674,127.4272,7.3187,126.7989,7.5764,126.2643M19.3596,80.7057C18.9123,80.1604,18.6908,79.498,18.6908,78.7163L19.792,78.7163C19.8388,79.2594,19.9389,79.6556,20.0965,79.9006C20.3671,80.3415,20.8612,80.563,21.5748,80.563C22.1286,80.563,22.5737,80.416,22.9081,80.1178C23.2447,79.8217,23.413,79.4383,23.413,78.9697C23.413,78.3925,23.234,77.9878,22.8805,77.7578C22.529,77.5277,22.0391,77.4106,21.4129,77.4106C21.3426,77.4106,21.268,77.4127,21.1978,77.4148C21.1253,77.417,21.0529,77.4191,20.9784,77.4234L20.9784,76.4904C21.087,76.5011,21.1786,76.5096,21.2531,76.5139C21.3277,76.516,21.4065,76.5181,21.4917,76.5181C21.8879,76.5181,22.2095,76.4563,22.463,76.3307C22.9081,76.1113,23.1318,75.7215,23.1318,75.1592C23.1318,74.7417,22.9827,74.4179,22.6866,74.1922C22.3906,73.9643,22.0434,73.8514,21.6514,73.8514C20.9486,73.8514,20.4629,74.0857,20.1945,74.5543C20.0476,74.812,19.9624,75.1805,19.9432,75.6576L18.9016,75.6576C18.9016,75.0314,19.0252,74.501,19.2765,74.0622C19.7046,73.2826,20.4608,72.8907,21.5407,72.8907C22.3948,72.8907,23.0551,73.0803,23.5237,73.4616C23.9923,73.8428,24.2245,74.3945,24.2245,75.1166C24.2245,75.632,24.086,76.0517,23.8091,76.3712C23.6387,76.5692,23.4151,76.7269,23.1425,76.8397C23.5834,76.9612,23.9263,77.1933,24.1734,77.5405C24.4226,77.8856,24.5461,78.3094,24.5461,78.81C24.5461,79.6109,24.282,80.2627,23.758,80.7653C23.2298,81.2701,22.4843,81.5215,21.5151,81.5215C20.5268,81.5236,19.8069,81.251,19.3596,80.7057M23.381,48.3808L23.381,46.3296L19.7068,46.3296L19.7068,45.2987L23.545,39.9673L24.4354,39.9673L24.4354,45.4095L25.6686,45.4095L25.6686,46.3296L24.4354,46.3296L24.4354,48.3808L23.381,48.3808L23.381,48.3808M23.364,45.4095L23.364,41.5989L20.678,45.4095L23.364,45.4095L23.364,45.4095M198.4585,123.7658L182.6113,123.7658L182.6113,125.2653L198.4585,125.2653L198.4585,123.7658M29.8328,123.7658L14.9845,123.7658L14.9845,125.2653L14.9845,125.2653L29.8328,125.2653L29.8328,123.7658M181.9936,114.7751L190.7713,113.6185L190.7074,113.1222L181.9297,114.2788L181.9936,114.7751M21.6429,135.2018L21.7622,136.1176L31.3855,134.8482L31.2641,133.9323L21.6429,135.2018M180.083,104.9515L188.6264,102.6596L188.4986,102.1761L179.9552,104.4701L180.083,104.9515M32.4889,144.561L32.359,144.0796L23.8134,146.3736L23.9412,146.855L32.4889,144.561M185.0736,92.0756L184.884,91.6113L176.7112,95.0023L176.9029,95.4645L185.0736,92.0756M27.5579,157.4219L35.7308,154.031L35.5412,153.5666L27.3662,156.9597L27.5579,157.4219M174.004,72.7395L173.6994,72.3433L166.6682,77.745L166.9728,78.1412L174.004,72.7395M45.7716,171.2861L45.467,170.8899L38.4359,176.2937L38.7404,176.6899L45.7716,171.2861M160.0589,70.2431L160.4103,70.5967L166.6768,64.3239L166.3232,63.9682L160.0589,70.2431M52.3852,178.7879L52.0316,178.4344L45.7631,184.7115L46.1166,185.065L52.3852,178.7879M157.9161,56.6303L152.525,63.6678L152.9191,63.9724L158.3144,56.9349L157.9161,56.6303M54.1254,192.1004L54.5216,192.405L59.9169,185.3611L59.5207,185.0565L54.1254,192.1004M172.7558,86.9061L186.4751,78.974L185.7253,77.6768L172.006,85.609L172.7558,86.9061M40.4338,163.4221L39.684,162.125L25.9668,170.0549L26.7166,171.3542L40.4338,163.4221M31.3536,114.3917L21.7324,113.1222L21.6706,113.6185L31.2897,114.8879L31.3536,114.3917M190.7692,135.4126L181.9957,134.256L181.9318,134.7502L190.7074,135.9089L190.7692,135.4126M32.4846,104.4701L23.9412,102.1761L23.8134,102.6596L32.3568,104.9515L32.4846,104.4701M188.6264,146.3736L180.0851,144.0817L179.9594,144.5631L188.4986,146.855L188.6264,146.3736M27.3662,92.0756L35.5391,95.4645L35.7286,95.0023L27.5579,91.6113L27.3662,92.0756M184.884,157.4219L185.0757,156.9597L176.8986,153.5666L176.7069,154.031L184.884,157.4219M38.7404,72.3433L38.4359,72.7395L45.4712,78.1433L45.7758,77.7471L38.7404,72.3433M174.004,176.2937L166.975,170.892L166.6704,171.2861L173.6994,176.6899L174.004,176.2937M46.1188,63.9682L45.7631,64.3239L52.0316,70.5988L52.3852,70.2453L46.1188,63.9682M166.3232,185.065L166.6768,184.7115L160.4082,178.4344L160.0546,178.7879L166.3232,185.065M54.5237,56.6303L54.1276,56.9349L59.525,63.9809L59.919,63.6763L54.5237,56.6303M157.7499,192.5328L158.4827,191.9705L153.0852,184.9287L152.3546,185.4911L157.7499,192.5328M40.438,85.6111L26.7145,77.6768L25.9647,78.974L39.6904,86.9104L40.438,85.6111M186.473,170.0549L172.76,162.125L172.0103,163.4243L185.7253,171.3542L186.473,170.0549M67.3719,58.624L68.6669,57.8742L60.5346,43.763L27.4621,43.763L27.4621,45.2646L27.4621,45.2646L59.6698,45.2646L59.6698,45.2646L67.3719,58.624M152.77,45.2646L184.9798,45.2646L184.9798,43.763L151.9073,43.763L143.7707,57.8785L145.0679,58.6282L152.77,45.2646M59.6698,203.7686L12.4072,203.7686L12.4072,205.2681L12.4072,205.2681L60.5346,205.2681L68.6712,191.1547L67.374,190.405L59.6698,203.7686M152.77,203.7686L145.0658,190.4028L143.7686,191.1526L151.9073,205.2681L200.0326,205.2681L200.0326,203.7686L152.77,203.7686L152.77,203.7686M189.6893,173.1349C189.7191,173.7164,189.9449,174.119,190.3602,174.3405C190.5754,174.4577,190.8182,174.5173,191.0866,174.5173C191.5892,174.5173,192.0195,174.3064,192.3731,173.8868C192.7288,173.4672,192.9801,172.6152,193.1292,171.3287C192.8949,171.6993,192.6074,171.9613,192.2623,172.1104C191.9151,172.2616,191.5445,172.3362,191.1462,172.3362C190.3389,172.3362,189.7021,172.0848,189.2313,171.5821C188.7606,171.0773,188.5263,170.4319,188.5263,169.6396C188.5263,168.8771,188.7563,168.2082,189.2207,167.631C189.685,167.0538,190.3688,166.7641,191.274,166.7641C192.4966,166.7641,193.338,167.3158,193.8023,168.417C194.06,169.0198,194.1878,169.778,194.1878,170.6875C194.1878,171.7142,194.0345,172.6237,193.7256,173.4161C193.2144,174.7367,192.3497,175.3949,191.127,175.3949C190.3091,175.3949,189.6871,175.1797,189.2611,174.7495C188.8373,174.3192,188.6243,173.7803,188.6243,173.1328L189.6893,173.1328L189.6893,173.1328M192.4306,170.9985C192.7778,170.7238,192.9482,170.2424,192.9482,169.5565C192.9482,168.9409,192.7948,168.483,192.4838,168.1784C192.175,167.8759,191.7788,167.7269,191.2974,167.7269C190.782,167.7269,190.3751,167.8994,190.0727,168.2444C189.7702,168.5895,189.619,169.0517,189.619,169.6289C189.619,170.1742,189.7511,170.6066,190.0152,170.9304C190.2814,171.252,190.7032,171.4118,191.2868,171.4118C191.7021,171.4118,192.0855,171.2733,192.4306,170.9985M201.596,123.589C201.2871,123.278,201.1359,122.8712,201.1359,122.3706C201.1359,121.7465,201.3617,121.2098,201.8132,120.7604C202.2669,120.3109,202.9059,120.0851,203.7366,120.0851C204.5375,120.0851,205.168,120.2981,205.6238,120.722C206.0796,121.1459,206.3075,121.64,206.3075,122.2066C206.3075,122.7306,206.1755,123.1545,205.9092,123.4782C205.7623,123.6614,205.5322,123.8403,205.2212,124.0171C205.5706,124.1769,205.8432,124.3601,206.0434,124.5688C206.414,124.9586,206.6015,125.4655,206.6015,126.0917C206.6015,126.8287,206.3544,127.4549,205.8581,127.9683C205.364,128.4837,204.6632,128.7393,203.7579,128.7393C202.9421,128.7393,202.2542,128.5178,201.6918,128.0748C201.1274,127.6317,200.8441,126.9885,200.8441,126.145C200.8441,125.6487,200.9655,125.2184,201.2062,124.8585C201.449,124.4964,201.8068,124.2195,202.284,124.0299C201.9879,123.9042,201.76,123.7573,201.596,123.589M204.9933,127.3847C205.315,127.1205,205.4747,126.7265,205.4747,126.2025C205.4747,125.6594,205.3086,125.2483,204.9784,124.9671C204.6461,124.6859,204.2201,124.5454,203.7026,124.5454C203.1999,124.5454,202.7909,124.6881,202.4735,124.9756C202.154,125.2632,201.9943,125.6615,201.9943,126.1684C201.9943,126.6051,202.1391,126.9821,202.4309,127.3016C202.7227,127.6189,203.17,127.7808,203.7792,127.7808C204.267,127.7787,204.6717,127.6466,204.9933,127.3847M204.7995,123.2333C205.0594,122.9734,205.1893,122.6646,205.1893,122.3025C205.1893,121.9894,205.0658,121.7018,204.8165,121.4398C204.5673,121.1778,204.1861,121.0458,203.677,121.0458C203.17,121.0458,202.8058,121.1778,202.58,121.4398C202.3521,121.7039,202.2392,122.0085,202.2392,122.3621C202.2392,122.7583,202.3862,123.0671,202.678,123.2908C202.9698,123.5144,203.3149,123.6252,203.7111,123.6252C204.1754,123.6252,204.5375,123.4953,204.7995,123.2333M194.616,73.3955L194.616,74.3157C194.3455,74.5777,193.9876,75.0314,193.5403,75.681C193.093,76.3286,192.699,77.0272,192.356,77.777C192.0174,78.5075,191.7596,79.1742,191.585,79.777C191.4721,80.1625,191.3251,80.7866,191.1462,81.645L189.9811,81.645C190.2473,80.0433,190.8331,78.45,191.7362,76.8632C192.273,75.9345,192.8332,75.1315,193.4232,74.4563L188.7883,74.4563L188.7883,73.3955L194.616,73.3955L194.616,73.3955M193.2017,41.0345C193.5701,41.5201,193.7555,42.0206,193.7555,42.5361L192.7139,42.5361C192.65,42.2059,192.552,41.944,192.4157,41.7587C192.1622,41.4051,191.7767,41.2304,191.2634,41.2304C190.6733,41.2304,190.2069,41.503,189.8597,42.0483C189.5125,42.5936,189.3187,43.3732,189.2803,44.3892C189.521,44.0335,189.8256,43.7672,190.192,43.5926C190.5285,43.435,190.9034,43.3583,191.3145,43.3583C192.0174,43.3583,192.6287,43.5841,193.1527,44.0314C193.6745,44.4808,193.9365,45.1517,193.9365,46.0421C193.9365,46.8046,193.6894,47.4798,193.1931,48.0656C192.699,48.6535,191.9939,48.9474,191.078,48.9474C190.2921,48.9474,189.6169,48.6492,189.046,48.0549C188.4773,47.4585,188.1919,46.4553,188.1919,45.0452C188.1919,44.0015,188.3197,43.1176,188.571,42.3913C189.0588,41.0004,189.9491,40.306,191.2463,40.306C192.1814,40.306,192.831,40.5488,193.2017,41.0345M192.4114,47.45C192.6862,47.0773,192.8246,46.6364,192.8246,46.1294C192.8246,45.6992,192.7011,45.2902,192.4562,44.9004C192.2112,44.5127,191.7639,44.3189,191.1142,44.3189C190.6648,44.3189,190.2665,44.468,189.9257,44.7683C189.5849,45.0708,189.4145,45.5224,189.4145,46.1273C189.4145,46.6598,189.5679,47.1049,189.8788,47.467C190.1898,47.827,190.618,48.0081,191.1696,48.0081C191.7234,48.0102,192.1388,47.8228,192.4114,47.45M180.4302,193.519L182.6283,193.519L182.6283,202.1562L181.2055,202.1562L181.2055,196.3157C181.2055,196.1474,181.2076,195.911,181.2119,195.6086C181.214,195.3061,181.2161,195.0739,181.2161,194.9099L179.8295,202.1562L178.3449,202.1562L176.9711,194.9099C176.9711,195.0739,176.9711,195.3061,176.9753,195.6086C176.9796,195.911,176.9817,196.1474,176.9817,196.3157L176.9817,202.1562L175.5567,202.1562L175.5567,193.519L177.7804,193.519L179.1117,200.3116L180.4302,193.519M186.1322,193.519L187.8617,193.519L190.4476,202.1562L188.7925,202.1562L188.3112,200.3819L185.6189,200.3819L185.1247,202.1562L183.5251,202.1562L186.1322,193.519M186.0299,198.893L187.9043,198.893L186.9821,195.4957L186.0299,198.893M192.5456,202.1562L190.7692,202.1562L193.1228,197.7556L190.8863,193.519L192.7117,193.519L194.0132,196.3327L195.3551,193.519L197.1208,193.519L194.8844,197.6853L197.2614,202.1562L195.4041,202.1562L194.0174,199.2125L192.5456,202.1562M198.0133,200.4032L199.515,200.4032L199.515,202.1562L198.0133,202.1562L198.0133,200.4032M18.0305,193.3784L20.2286,193.3784L20.2286,202.0156L18.8058,202.0156L18.8058,196.173C18.8058,196.0069,18.8079,195.7704,18.8122,195.468C18.8143,195.1655,18.8164,194.9312,18.8164,194.7672L17.4319,202.0156L15.9452,202.0156L14.5713,194.7672C14.5713,194.9312,14.5713,195.1655,14.5756,195.468C14.5798,195.7704,14.5798,196.0069,14.5798,196.173L14.5798,202.0156L13.157,202.0156L13.157,193.3784L15.3807,193.3784L16.712,200.171L18.0305,193.3784M23.0381,202.0156L21.5194,202.0156L21.5194,193.3784L21.5194,193.3784L23.0381,193.3784L23.0381,202.0156M24.4396,193.3784L26.0414,193.3784L28.9446,199.3999L28.9446,193.3784L30.3674,193.3784L30.3674,202.0156L28.8402,202.0156L25.8646,195.8876L25.8646,202.0156L24.4396,202.0156L24.4396,202.0156L24.4396,193.3784M31.6625,200.2647L33.1641,200.2647L33.1641,202.0156L31.6625,202.0156L31.6625,200.2647Z"/>
</svg>